<?xml version="1.0" encoding="iso-8859-1"?>
<!-- Generator: Adobe Illustrator 19.0.0, SVG Export Plug-In . SVG Version: 6.00 Build 0)  -->
<svg version="1.1" id="Layer_1" xmlns="http://www.w3.org/2000/svg" xmlns:xlink="http://www.w3.org/1999/xlink" x="0px" y="0px"
	 viewBox="0 0 512.001 512.001" style="enable-background:new 0 0 512.001 512.001;" xml:space="preserve">
<path style="fill:#E0E1E2;" d="M256.001,173.1c-4.721,0-8.546-3.825-8.546-8.546v-60.475c0-4.721,3.825-8.546,8.546-8.546
	c4.721,0,8.546,3.825,8.546,8.546v60.475C264.546,169.275,260.72,173.1,256.001,173.1z"/>
<path style="fill:#F4A321;" d="M294.976,52.193L263.636,4.136C261.953,1.555,259.08,0,256.001,0c-3.08,0-5.953,1.555-7.635,4.136
	l-31.341,48.059c-9.478,14.537-10.088,32.979-1.592,48.133c0.098,0.175,0.204,0.35,0.312,0.518l1.384,2.123
	c8.067,12.371,21.161,20.019,35.878,20.981c0.065,0.005,0.154,0.01,0.231,0.015c0.59,0.036,1.179,0.057,1.77,0.072
	c0.04,0.001,0.077,0.002,0.117,0.002c0.232,0.003,0.533,0.006,0.856,0.006c0.329,0,0.684-0.002,1.093-0.01
	c0.509-0.014,1.123-0.034,1.764-0.074l0.107-0.007c14.767-0.965,27.861-8.615,35.932-20.991l1.38-2.117
	c0.109-0.169,0.214-0.342,0.312-0.517C305.064,85.176,304.454,66.731,294.976,52.193z"/>
<path style="fill:#E0E1E2;" d="M342.838,428.169V183.164c0-10.279-8.332-18.609-18.608-18.609H187.77
	c-10.276,0-18.608,8.33-18.608,18.609v245.005H342.838z"/>
<path style="fill:#EDEDED;" d="M324.231,164.555h-60.105c-17.197,36.606-26.825,77.471-26.825,120.591
	c0,52.157,14.075,101.02,38.615,143.023h66.923V183.164C342.838,172.884,334.506,164.555,324.231,164.555z"/>
<path style="fill:#F27B22;" d="M235.358,102.966l-1.538-2.36c-8.342-14.646-8.404-33.322,1.436-48.412l29.861-45.787l-1.48-2.27
	C261.953,1.555,259.08,0,256.001,0c-3.08,0-5.952,1.555-7.634,4.136l-2.607,3.997l-28.735,44.062
	c-0.096,0.145-0.174,0.295-0.267,0.442c-0.499,0.782-0.981,1.569-1.427,2.368c-0.234,0.418-0.436,0.849-0.655,1.273
	c-0.278,0.539-0.57,1.074-0.826,1.621c-0.215,0.459-0.4,0.93-0.599,1.395c-0.224,0.525-0.463,1.046-0.668,1.576
	c-0.169,0.439-0.309,0.884-0.465,1.326c-0.203,0.572-0.411,1.143-0.59,1.721c-0.117,0.376-0.21,0.759-0.316,1.138
	c-0.182,0.655-0.371,1.311-0.525,1.97c-0.067,0.291-0.116,0.583-0.178,0.875c-0.163,0.761-0.32,1.522-0.443,2.287
	c-0.031,0.188-0.049,0.376-0.076,0.564c-0.129,0.874-0.245,1.751-0.324,2.629c-0.007,0.08-0.009,0.16-0.016,0.238
	c-0.436,5.176-0.005,10.373,1.261,15.368l0.001,0.002c0.251,0.99,0.536,1.971,0.852,2.945c0.049,0.15,0.107,0.299,0.158,0.449
	c0.275,0.819,0.565,1.634,0.885,2.439c0.136,0.336,0.292,0.668,0.434,1.004c0.262,0.614,0.523,1.229,0.811,1.833
	c0.238,0.497,0.504,0.983,0.762,1.474c0.231,0.446,0.451,0.896,0.7,1.334c0.074,0.126,0.148,0.254,0.228,0.376l1.384,2.125
	c0.518,0.795,1.057,1.569,1.616,2.322c0.018,0.024,0.038,0.048,0.056,0.073c8.385,11.268,21.059,17.729,34.252,18.593
	c0.05,0.002,0.105,0.007,0.158,0.009c0.604,0.038,1.209,0.059,1.813,0.074c0.325,0.006,0.648,0.008,0.974,0.008
	c0.009,0,0.018,0,0.026,0c0.264,0,0.529-0.002,0.794-0.007c0.066,0,0.131-0.001,0.203-0.002c0.58-0.016,1.162-0.035,1.741-0.072
	c0.026-0.002,0.051-0.002,0.077-0.005l0.107-0.007c2.076-0.136,4.136-0.427,6.172-0.836
	C253.321,120.746,242.447,113.84,235.358,102.966z"/>
<path style="fill:#B2AFB1;" d="M206.001,164.555H187.77c-10.276,0-18.608,8.33-18.608,18.609v245.005h18.231V183.164
	C187.393,172.884,195.725,164.555,206.001,164.555z"/>
<path style="fill:#EF3A3A;" d="M368.343,450.356c-1.513-1.75-3.714-2.755-6.029-2.755H149.686c-2.314,0-4.515,1.005-6.029,2.755
	c-1.515,1.749-2.197,4.07-1.865,6.361l6.999,48.449c0.567,3.923,3.929,6.835,7.894,6.835h198.631c3.963,0,7.326-2.912,7.894-6.835
	l6.999-48.449C370.54,454.426,369.858,452.105,368.343,450.356z"/>
<path style="fill:#EF4B4B;" d="M362.314,447.6h-73.961c17.19,24.6,38.169,46.351,62.104,64.401h4.86
	c3.963,0,7.326-2.912,7.894-6.835l6.999-48.449c0.332-2.291-0.35-4.612-1.865-6.361C366.83,448.605,364.63,447.6,362.314,447.6z"/>
<path style="fill:#E52323;" d="M167.022,505.165l-6.999-48.449c-0.332-2.291,0.35-4.612,1.865-6.361
	c1.513-1.75,3.714-2.755,6.029-2.755h-18.231c-2.314,0-4.515,1.005-6.029,2.755c-1.515,1.749-2.197,4.07-1.865,6.361l6.999,48.449
	c0.567,3.923,3.929,6.835,7.894,6.835h18.231C170.95,512,167.589,509.089,167.022,505.165z"/>
<path style="fill:#FF3B3B;" d="M210.94,469.312h204.781c10.276,0,18.608-8.332,18.608-18.611v-6.2
	c0-10.279-8.333-18.61-18.608-18.61H96.28c-10.276,0-18.608,8.331-18.608,18.61v6.2c0,10.279,8.333,18.611,18.608,18.611h87.315"/>
<path style="fill:#FC5959;" d="M415.72,425.89H274.587c8.83,15.444,19.076,29.971,30.549,43.421h110.586
	c10.276,0,18.608-8.332,18.608-18.611v-6.2C434.329,434.221,425.996,425.89,415.72,425.89z"/>
<path style="fill:#E52323;" d="M95.903,450.701v-6.2c0-10.279,8.333-18.61,18.608-18.61H96.28c-10.276,0-18.608,8.331-18.608,18.61
	v6.2c0,10.279,8.333,18.611,18.608,18.611h18.231C104.234,469.312,95.903,460.979,95.903,450.701z"/>
<g>
</g>
<g>
</g>
<g>
</g>
<g>
</g>
<g>
</g>
<g>
</g>
<g>
</g>
<g>
</g>
<g>
</g>
<g>
</g>
<g>
</g>
<g>
</g>
<g>
</g>
<g>
</g>
<g>
</g>
</svg>
